<svg width="86" height="82" viewBox="0 0 86 82" fill="none" xmlns="http://www.w3.org/2000/svg">
<g clip-path="url(#clip0_813_532)">
<path d="M18.6744 62.6983C20.3032 58.627 26.0584 51.1901 36.0484 54.0129C34.9625 58.0842 29.9675 65.5211 18.6744 62.6983Z" fill="#AA8739"/>
<path d="M55.0511 54.0128C56.68 58.0842 62.4351 65.5211 72.4251 62.6983C71.3392 58.627 66.3442 51.1901 55.0511 54.0128Z" fill="#AA8739"/>
<path d="M50.0241 30.5427C50.2249 27.8094 52.2477 22.2915 58.7327 22.0854C58.8554 24.716 57.2854 30.0904 50.0241 30.5427Z" fill="#AA8739"/>
<path d="M40.8159 30.5427C40.6152 27.8094 38.5923 22.2915 32.1073 22.0854C31.9846 24.716 33.5546 30.0904 40.8159 30.5427Z" fill="#AA8739"/>
<path d="M17.5163 23.1857C16.4089 20.6788 12.6496 16.1609 6.4722 18.1451C7.24055 20.664 10.5251 25.1987 17.5163 23.1857Z" fill="#AA8739"/>
<path d="M82.6687 18.1451C81.5612 20.652 77.8019 25.1699 71.6245 23.1857C72.3929 20.6668 75.6774 16.1321 82.6687 18.1451Z" fill="#AA8739"/>
<path d="M12.2477 40.5665C10.351 38.588 5.27522 35.6242 0.146034 39.5971C1.72809 41.7027 6.36331 44.8443 12.2477 40.5665Z" fill="#AA8739"/>
<path d="M85.544 39.5972C83.6473 41.5757 78.5715 44.5395 73.4424 40.5666C75.0244 38.461 79.6596 35.3194 85.544 39.5972Z" fill="#AA8739"/>
<path d="M18.8692 54.7287C16.1792 54.2021 10.3223 54.6991 8.41471 60.8996C10.9205 61.7111 16.5195 61.613 18.8692 54.7287Z" fill="#AA8739"/>
<path d="M82.3927 60.8996C79.7028 61.4262 73.8459 60.9292 71.9383 54.7287C74.4441 53.9172 80.043 54.0153 82.3927 60.8996Z" fill="#AA8739"/>
<path d="M38.7556 60.1761C36.1192 60.9262 31.1243 64.0243 32.2359 70.4156C34.8373 70.0029 39.7832 67.3773 38.7556 60.1761Z" fill="#AA8739"/>
<path d="M59.3873 70.4156C56.7509 69.6655 51.756 66.5674 52.8675 60.1761C55.4689 60.5887 60.4149 63.2144 59.3873 70.4156Z" fill="#AA8739"/>
<path d="M26.3778 22.4038C26.7662 19.6909 25.9702 13.8681 19.6792 12.2804C18.9968 14.824 19.3811 20.4097 26.3778 22.4038Z" fill="#AA8739"/>
<path d="M70.3555 12.2804C70.7439 14.9933 69.948 20.8161 63.657 22.4038C62.9746 19.8602 63.3589 14.2745 70.3555 12.2804Z" fill="#AA8739"/>
<path d="M51.9507 18.4363C51.1263 15.8225 50.965 9.94782 56.9141 7.35872C58.001 9.75754 58.53 15.3314 51.9507 18.4363Z" fill="#AA8739"/>
<path d="M38.9971 18.4363C39.8215 15.8226 39.9829 9.94788 34.0337 7.35878C32.9468 9.7576 32.4178 15.3314 38.9971 18.4363Z" fill="#AA8739"/>
<path d="M44.7178 16.4681C42.947 18.5601 40.5269 23.9158 45.0126 28.6029C46.9425 26.8106 49.5853 21.8745 44.7178 16.4681Z" fill="#AA8739"/>
<path d="M44.7178 0.182834C42.947 2.27479 40.5269 7.63049 45.0126 12.3176C46.9425 10.5253 49.5853 5.58917 44.7178 0.182834Z" fill="#AA8739"/>
<path d="M9.76591 48.212C12.4745 44.7633 20.0897 39.2454 28.882 44.7642C26.6945 48.3656 19.8086 54.0973 9.76591 48.212Z" fill="#AA8739"/>
<path d="M58.6301 44.7641C61.3387 48.2129 68.9539 53.7307 77.7462 48.212C75.5587 44.6105 68.6728 38.8789 58.6301 44.7641Z" fill="#AA8739"/>
<path d="M6.31511 31.2307C9.99921 28.8516 18.9964 26.1136 25.5123 34.1939C22.2711 36.887 13.894 40.0646 6.31511 31.2307Z" fill="#AA8739"/>
<path d="M61.6946 34.1939C65.3787 36.5729 74.3759 39.3109 80.8919 31.2306C77.6506 28.5376 69.2735 25.36 61.6946 34.1939Z" fill="#AA8739"/>
<path d="M42.0207 64.8697C42.631 73.6161 37.5718 79.3932 34.4748 81.5764C34.3094 81.693 34.3899 81.9513 34.5911 81.9287C40.5557 81.2584 46.0696 72.5062 46.0926 72.4696L46.0938 72.4677C49.3503 67.0405 49.3504 64.5979 50.1647 61.3412C50.8163 58.7356 50.9791 55.6414 50.9791 54.0128C50.9791 51.2986 50.9791 51.5701 51.7935 50.4844C54.2463 47.8568 59.0736 40.7525 59.3794 32.8157C59.3874 32.6084 59.1118 32.5441 59.0105 32.7252C52.2313 44.8449 46.5805 45.0015 43.6495 44.5131C32.6326 42.6773 29.2927 31.254 28.5571 25.9105C28.5277 25.6962 28.2264 25.6689 28.1671 25.8769C25.6795 34.5983 29.6055 41.8893 31.7049 44.5131C34.311 47.7702 41.3692 55.5328 42.0207 64.8697Z" fill="#255C69"/>
<ellipse cx="45.0068" cy="36.9133" rx="5.9723" ry="5.97127" fill="#255C69"/>
</g>
<defs>
<clipPath id="clip0_813_532">
<rect width="85.69" height="82" fill="white"/>
</clipPath>
</defs>
</svg>
